HIERARCHY
ROOT Hips
{
	OFFSET 0.00000 0.00000 0.00000
	CHANNELS 6 Xposition Yposition Zposition Zrotation Yrotation Xrotation 
	JOINT LHipJoint
	{
		OFFSET 0 0 0
		CHANNELS 3 Zrotation Yrotation Xrotation
		JOINT LeftHip
		{
			OFFSET 1.64577 -1.42384 0.94276
			CHANNELS 3 Zrotation Yrotation Xrotation
			JOINT LeftKnee
			{
				OFFSET 2.11538 -5.81197 0.00000
				CHANNELS 3 Zrotation Yrotation Xrotation
				JOINT LeftAnkle
				{
					OFFSET 2.36541 -6.49893 0.00000
					CHANNELS 3 Zrotation Yrotation Xrotation
					JOINT LeftToe
					{
						OFFSET 0.17759 -0.48793 1.73865
						CHANNELS 3 Zrotation Yrotation Xrotation
						End Site
						{
							OFFSET 0.00000 -0.00000 0.91205
						}
					}
				}
			}
		}
	}
	JOINT RHipJoint
	{
		OFFSET 0 0 0
		CHANNELS 3 Zrotation Yrotation Xrotation
		JOINT RightHip
		{
			OFFSET -1.43750 -1.42384 0.94276
			CHANNELS 3 Zrotation Yrotation Xrotation
			JOINT RightKnee
			{
				OFFSET -2.10480 -5.78291 0.00000
				CHANNELS 3 Zrotation Yrotation Xrotation
				JOINT RightAnkle
				{
					OFFSET -2.34880 -6.45329 0.00000
					CHANNELS 3 Zrotation Yrotation Xrotation
					JOINT RightToe
					{
						OFFSET -0.22842 -0.62757 1.80469
						CHANNELS 3 Zrotation Yrotation Xrotation
						End Site
						{
							OFFSET -0.00000 -0.00000 0.95886
						}
					}
				}
			}
		}
	}
	JOINT lowerback
	{
		OFFSET 0 0 0
		CHANNELS 3 Zrotation Yrotation Xrotation
		JOINT Chest
		{
			OFFSET 0.06217 1.93758 -0.49272
			CHANNELS 3 Zrotation Yrotation Xrotation
			JOINT Chest2
			{
				OFFSET -0.03114 2.03621 -0.05830
				CHANNELS 3 Zrotation Yrotation Xrotation
				JOINT lowerneck
				{
					OFFSET 0 0 0
					CHANNELS 3 Zrotation Yrotation Xrotation
					JOINT Neck
					{
						OFFSET 0.04421 1.41010 0.26562
						CHANNELS 3 Zrotation Yrotation Xrotation
						JOINT Head
						{
							OFFSET -0.13407 1.43847 0.06181
							CHANNELS 3 Zrotation Yrotation Xrotation
							End Site
							{
								OFFSET -0.04980 1.45844 -0.00689
							}
						}
					}
				}
				JOINT LeftCollar
				{
					OFFSET 0 0 0
					CHANNELS 3 Zrotation Yrotation Xrotation
					JOINT LeftShoulder
					{
						OFFSET 2.18382 1.47753 -0.35694
CHANNELS 3 Zrotation Xrotation Yrotation
						JOINT LeftElbow
						{
OFFSET 0 -5.054600 0.000000
CHANNELS 3 Zrotation Xrotation Yrotation
							JOINT LeftWrist
							{
OFFSET 0 -3.390130 0.000000
CHANNELS 3 Zrotation Xrotation Yrotation
								JOINT lhand
								{
									OFFSET 0 0 0
CHANNELS 3 Zrotation Xrotation Yrotation
									JOINT LFingers
									{
OFFSET 0 -0.572420 -0.000000
CHANNELS 3 Zrotation Xrotation Yrotation
										End Site
										{
OFFSET 0 -0.461500 -0.000000
										}
									}
								}
								JOINT LThumb
								{
OFFSET 0 0.000000 0.000000
CHANNELS 3 Zrotation Xrotation Yrotation
									End Site
									{
OFFSET 0 -0.468550 0.468550
									}
								}
							}
						}
					}
				}
				JOINT RightCollar
				{
					OFFSET 0 0 0
					CHANNELS 3 Zrotation Yrotation Xrotation
					JOINT RightShoulder
					{
						OFFSET -2.06033 1.72839 -0.47437
CHANNELS 3 Zrotation Xrotation Yrotation
						JOINT RightElbow
						{
OFFSET 0 -5.070100 0.000000
CHANNELS 3 Zrotation Xrotation Yrotation
							JOINT RightWrist
							{
OFFSET 0 -3.149570 -0.000000
CHANNELS 3 Zrotation Xrotation Yrotation
								JOINT rhand
								{
									OFFSET 0 0 0
CHANNELS 3 Zrotation Xrotation Yrotation
									JOINT RFingers
									{
OFFSET 0 -0.718190 -0.000000
CHANNELS 3 Zrotation Xrotation Yrotation
										End Site
										{
OFFSET 0 -0.579020 -0.000000
										}
									}
								}
								JOINT RThumb
								{
OFFSET 0 0.000000 0.000000
CHANNELS 3 Zrotation Xrotation Yrotation
									End Site
									{
OFFSET 0 -0.587860 0.587860
									}
								}
							}
						}
					}
				}
			}
		}
	}
}
MOTION
Frames: 8
Frame Time: 0.008333333333333333
12.738447 15.473810 0.010631 -105.525965 83.306492 -98.623728 0.000000 0.000000 0.000000 -10.578248 -23.222158 -33.016778 2.916564 10.549243 30.783936 1.528911 -3.543959 -22.507713 2.806375 -10.350840 -30.143548 0.000000 0.000000 0.000000 32.394930 -7.712017 11.551924 -8.665210 -16.517432 54.815840 1.107269 -20.781396 -18.617274 -0.838709 5.841802 -16.326196 5.837091 2.763625 7.254256 -1.340606 4.123036 3.011212 -4.955675 2.158326 -0.424502 5.111744 1.129308 -11.501532 -3.344210 1.147721 -5.649853 -1.888216 0.571053 0.213194 0.000000 0.000000 0.000000 -8.399345 51.602417 -11.072668 128.980475 -53.398369 93.009440 25.314126 -19.464164 10.024827 0.000000 0.000000 0.000000 -7.125000 0.000000 0.000000 -1.201178 18.916272 -0.747146 0.000000 0.000000 0.000000 -12.771985 14.125756 57.187080 -140.466835 -47.787148 -101.906210 -30.225243 -42.462943 -22.957764 0.000000 0.000000 0.000000 7.125000 0.000000 0.000000 -0.719011 3.866179 -0.666591
12.885740 15.441730 0.017192 -105.078895 83.405376 -98.286483 0.000000 0.000000 0.000000 -10.768745 -23.156874 -32.820133 2.992491 10.675629 31.201108 1.524432 -3.775477 -22.431438 2.923126 -10.551319 -30.799345 0.000000 0.000000 0.000000 32.124490 -7.664451 11.021473 -9.078630 -16.804797 56.279519 1.051208 -20.473389 -18.647222 -0.842626 5.855107 -16.364689 5.666973 2.765674 7.351769 -1.380719 4.120408 3.014336 -4.908125 2.154079 -0.485406 5.142931 1.145224 -11.470196 -3.341830 1.164464 -5.607460 -1.892447 0.578160 0.222581 0.000000 0.000000 0.000000 -8.297634 51.184551 -11.147604 129.027926 -53.380007 93.047519 25.165378 -19.670692 10.040181 0.000000 0.000000 0.000000 -7.125000 0.000000 0.000000 -1.307433 18.912917 -0.813339 0.000000 0.000000 0.000000 -12.672555 14.347969 57.326440 -140.276306 -47.902444 -101.765230 -30.112128 -42.359728 -23.116693 0.000000 0.000000 0.000000 7.125000 0.000000 0.000000 -0.625234 3.716737 -0.581573
13.033034 15.409650 0.023754 -104.631825 83.504261 -97.949239 0.000000 0.000000 0.000000 -10.959241 -23.091590 -32.623488 3.068419 10.802015 31.618279 1.519953 -4.006995 -22.355163 3.039876 -10.751798 -31.455141 0.000000 0.000000 0.000000 31.854049 -7.616884 10.491021 -9.492050 -17.092161 57.743199 0.995146 -20.165382 -18.677170 -0.846543 5.868412 -16.403182 5.496855 2.767724 7.449281 -1.420831 4.117780 3.017459 -4.860576 2.149831 -0.546310 5.174119 1.161140 -11.438859 -3.339450 1.181206 -5.565067 -1.896678 0.585267 0.231969 0.000000 0.000000 0.000000 -8.195924 50.766685 -11.222540 129.075376 -53.361645 93.085599 25.016630 -19.877221 10.055535 0.000000 0.000000 0.000000 -7.125000 0.000000 0.000000 -1.413689 18.909562 -0.879532 0.000000 0.000000 0.000000 -12.573126 14.570182 57.465801 -140.085776 -48.017740 -101.624250 -29.999014 -42.256514 -23.275622 0.000000 0.000000 0.000000 7.125000 0.000000 0.000000 -0.531457 3.567295 -0.496556
13.180249 15.376581 0.029923 -103.852075 83.641412 -97.276929 0.000000 0.000000 0.000000 -11.257932 -22.900615 -32.397514 3.157897 10.942023 32.089584 1.448120 -3.909395 -21.711460 3.055597 -10.779970 -31.546200 0.000000 0.000000 0.000000 31.536319 -7.507174 9.926971 -9.925345 -17.347999 59.213461 0.928328 -19.815608 -18.791443 -0.923031 6.075852 -17.020112 5.288980 2.771837 7.553557 -1.473804 4.113677 3.006593 -4.806066 2.143998 -0.627254 5.197499 1.184416 -11.383537 -3.296049 1.210244 -5.535362 -1.885616 0.599185 0.233165 0.000000 0.000000 0.000000 -8.076457 50.316790 -11.319273 129.059475 -53.367724 93.072802 24.932058 -19.987897 9.994567 0.000000 0.000000 0.000000 -7.125000 0.000000 0.000000 -1.470912 18.983965 -0.912660 0.000000 0.000000 0.000000 -12.476105 14.812960 57.601944 -139.810474 -48.177808 -101.418514 -29.905460 -42.068150 -23.328821 0.000000 0.000000 0.000000 7.125000 0.000000 0.000000 -0.465793 3.529672 -0.436317
13.327377 15.342419 0.035658 -102.704253 83.820901 -96.233908 0.000000 0.000000 0.000000 -11.676327 -22.570576 -32.139089 3.262368 11.097101 32.620779 1.301769 -3.447665 -20.439963 2.959539 -10.617504 -31.012443 0.000000 0.000000 0.000000 31.166267 -7.328710 9.325749 -10.380629 -17.568955 60.691007 0.849607 -19.419624 -18.999013 -1.079811 6.498081 -18.277015 5.039331 2.778233 7.665317 -1.541005 4.107942 2.980248 -4.743856 2.136412 -0.730369 5.212242 1.215835 -11.301676 -3.207263 1.252885 -5.519693 -1.857635 0.620637 0.225298 0.000000 0.000000 0.000000 -7.937344 49.831459 -11.440122 128.973482 -53.400845 93.003717 24.918489 -19.992525 9.849158 0.000000 0.000000 0.000000 -7.125000 0.000000 0.000000 -1.473887 19.144398 -0.909206 0.000000 0.000000 0.000000 -12.381749 15.078492 57.734528 -139.441381 -48.387411 -101.141132 -29.833549 -41.785578 -23.265041 0.000000 0.000000 0.000000 7.125000 0.000000 0.000000 -0.431234 3.615764 -0.403493
13.474505 15.308257 0.041393 -101.556432 84.000390 -95.190888 0.000000 0.000000 0.000000 -12.094722 -22.240538 -31.880664 3.366838 11.252179 33.151974 1.155417 -2.985935 -19.168466 2.863480 -10.455038 -30.478686 0.000000 0.000000 0.000000 30.796215 -7.150246 8.724526 -10.835914 -17.789912 62.168553 0.770886 -19.023641 -19.206582 -1.236592 6.920311 -19.533918 4.789683 2.784629 7.777076 -1.608206 4.102207 2.953903 -4.681647 2.128826 -0.833484 5.226984 1.247254 -11.219815 -3.118477 1.295526 -5.504025 -1.829654 0.642090 0.217431 0.000000 0.000000 0.000000 -7.798232 49.346127 -11.560972 128.887489 -53.433967 92.934632 24.904920 -19.997152 9.703749 0.000000 0.000000 0.000000 -7.125000 0.000000 0.000000 -1.476862 19.304831 -0.905752 0.000000 0.000000 0.000000 -12.287393 15.344024 57.867112 -139.072288 -48.597013 -100.863750 -29.761638 -41.503007 -23.201261 0.000000 0.000000 0.000000 7.125000 0.000000 0.000000 -0.396675 3.701856 -0.370670
13.621633 15.274094 0.047128 -100.408610 84.179879 -94.147868 0.000000 0.000000 0.000000 -12.513116 -21.910499 -31.622239 3.471309 11.407257 33.683170 1.009066 -2.524205 -17.896968 2.767422 -10.292572 -29.944929 0.000000 0.000000 0.000000 30.426164 -6.971781 8.123304 -11.291198 -18.010869 63.646099 0.692165 -18.627657 -19.414151 -1.393372 7.342540 -20.790822 4.540034 2.791025 7.888835 -1.675407 4.096472 2.927558 -4.619437 2.121240 -0.936600 5.241727 1.278673 -11.137954 -3.029691 1.338167 -5.488357 -1.801673 0.663543 0.209564 0.000000 0.000000 0.000000 -7.659120 48.860796 -11.681821 128.801497 -53.467088 92.865547 24.891351 -20.001780 9.558339 0.000000 0.000000 0.000000 -7.125000 0.000000 0.000000 -1.479837 19.465264 -0.902297 0.000000 0.000000 0.000000 -12.193038 15.609555 57.999696 -138.703194 -48.806615 -100.586368 -29.689726 -41.220436 -23.137481 0.000000 0.000000 0.000000 7.125000 0.000000 0.000000 -0.362116 3.787948 -0.337846
13.768762 15.239932 0.052863 -99.260788 84.359369 -93.104847 0.000000 0.000000 0.000000 -12.931511 -21.580461 -31.363815 3.575780 11.562335 34.214365 0.862714 -2.062475 -16.625471 2.671364 -10.130107 -29.411172 0.000000 0.000000 0.000000 30.056112 -6.793317 7.522081 -11.746482 -18.231826 65.123646 0.613445 -18.231674 -19.621721 -1.550152 7.764769 -22.047725 4.290386 2.797421 8.000594 -1.742608 4.090737 2.901213 -4.557227 2.113654 -1.039715 5.256469 1.310091 -11.056093 -2.940905 1.380808 -5.472689 -1.773691 0.684996 0.201697 0.000000 0.000000 0.000000 -7.520007 48.375465 -11.802671 128.715504 -53.500209 92.796461 24.877782 -20.006408 9.412930 0.000000 0.000000 0.000000 -7.125000 0.000000 0.000000 -1.482812 19.625697 -0.898843 0.000000 0.000000 0.000000 -12.098682 15.875087 58.132280 -138.334101 -49.016218 -100.308986 -29.617815 -40.937864 -23.073702 0.000000 0.000000 0.000000 7.125000 0.000000 0.000000 -0.327557 3.874040 -0.305022
